<svg width="600" height="200" viewBox="0 0 600 200" xmlns="http://www.w3.org/2000/svg">
  <circle cx="100" cy="100" r="88" fill="#0b1628" stroke="#1a2d4a" stroke-width="1.5"/>
  <circle cx="100" cy="100" r="74" fill="none" stroke="#1a2d4a" stroke-width="0.5"/>
  <rect x="48" y="118" width="16" height="32" rx="3" fill="#3b82f6"/>
  <rect x="70" y="98" width="16" height="52" rx="3" fill="#10b981"/>
  <rect x="92" y="80" width="16" height="70" rx="3" fill="#f59e0b"/>
  <rect x="114" y="88" width="16" height="62" rx="3" fill="#3b82f6"/>
  <rect x="136" y="68" width="16" height="82" rx="3" fill="#10b981"/>
  <polyline fill="none" stroke="#10b981" stroke-width="3" stroke-linecap="round" stroke-linejoin="round" points="56,112 78,92 100,74 122,82 144,62"/>
  <circle cx="56" cy="112" r="4" fill="#10b981"/>
  <circle cx="78" cy="92" r="4" fill="#10b981"/>
  <circle cx="100" cy="74" r="4" fill="#10b981"/>
  <circle cx="122" cy="82" r="4" fill="#10b981"/>
  <circle cx="144" cy="62" r="5" fill="#f59e0b"/>
  <path d="M140 58 L148 50 L156 58" fill="none" stroke="#f59e0b" stroke-width="2.5" stroke-linecap="round" stroke-linejoin="round"/>
  <line x1="148" y1="50" x2="148" y2="66" stroke="#f59e0b" stroke-width="2.5" stroke-linecap="round"/>
  <text x="210" y="116" font-family="system-ui, sans-serif" font-weight="900" fill="#e2e8f0" font-size="48" letter-spacing="-2">Stock Analyzer</text>
  <text x="214" y="146" font-family="system-ui, sans-serif" font-weight="400" fill="#4e6080" font-size="16" letter-spacing="4">P R O</text>
  <circle cx="278" cy="142" r="4" fill="#3b82f6"/>
</svg>
